# Blender v2.78 (sub 0) OBJ File: ''
# www.blender.org
mtllib media\\plane.mtl
o plane
v -84.558136 15.784573 544.443298
v 150.917633 14.123736 562.266113
v -50.059006 14.165237 -486.749084
v 135.941010 14.165237 -486.749084
v -50.059006 14.165237 41.251114
v 42.941002 14.165237 569.251282
v 135.941010 14.165237 41.251114
v 42.941002 14.165237 -486.749084
v 42.941002 14.165237 41.251114
v -48.972618 15.854847 231.121521
v 89.441010 14.165237 569.251282
v 135.941010 14.165237 -222.748978
v -3.559002 14.165237 -486.749084
v -50.059006 14.165237 -222.748978
v -3.559002 14.165237 569.251282
v 135.941010 14.165237 305.251221
v 89.441010 14.165237 -486.749084
v 42.941002 14.165237 -222.748978
v 42.941002 14.165237 305.251221
v -3.559002 14.165237 41.251114
v 89.441010 14.165237 41.251114
v 89.441010 14.165237 305.251221
v -3.559002 14.165237 305.251221
v -3.559002 14.165237 -222.748978
v 89.441010 14.165237 -222.748978
v -94.248940 14.295679 433.857605
v 112.691010 14.165237 569.251282
v 168.590485 14.100165 -349.984863
v -26.809006 14.165237 -486.749084
v -50.059006 14.165237 -90.748932
v 19.691000 14.165237 569.251282
v 135.941010 14.165237 173.251160
v 66.191002 14.165237 -486.749084
v 42.941002 14.165237 -354.749023
v 42.941002 14.165237 173.251160
v -26.809006 14.165237 41.251114
v 66.191002 14.165237 41.251114
v -50.059006 14.165237 173.251160
v 66.191002 14.165237 569.251282
v 135.941010 14.165237 -90.748932
v 19.691000 14.165237 -486.749084
v -98.585655 14.261951 -361.829956
v -26.809006 14.165237 569.251282
v 179.571808 14.043123 433.447449
v 112.691010 14.165237 -486.749084
v 42.941002 14.165237 -90.748932
v 42.941002 14.165237 437.251221
v 19.691000 14.165237 41.251114
v 112.691010 14.165237 41.251114
v 89.441010 14.165237 173.251160
v 89.441010 14.165237 437.251221
v 66.191002 14.165237 305.251221
v 112.691010 14.165237 305.251221
v -3.559002 14.165237 173.251160
v -3.559002 14.165237 437.251221
v -26.809006 14.165237 305.251221
v 19.691000 14.165237 305.251221
v -3.559002 14.165237 -354.749023
v -3.559002 14.165237 -90.748932
v -26.809006 14.165237 -222.748978
v 19.691000 14.165237 -222.748978
v 89.441010 14.165237 -354.749023
v 89.441010 14.165237 -90.748932
v 66.191002 14.165237 -222.748978
v 112.691010 14.165237 -222.748978
v 112.691010 14.165237 -90.748932
v 66.191002 14.165237 -90.748932
v 66.191002 14.165237 -354.749023
v 19.691000 14.165237 -90.748932
v -26.809006 14.165237 -90.748932
v -26.809006 14.165237 -354.749023
v 19.691000 14.165237 437.251221
v -26.809006 14.165237 437.251221
v -26.809006 14.165237 173.251160
v 112.691010 14.165237 437.251221
v 66.191002 14.165237 437.251221
v 66.191002 14.165237 173.251160
v 112.691010 14.165237 173.251160
v 19.691000 14.165237 173.251160
v 19.691000 14.165237 -354.749023
v 112.691010 14.165237 -354.749023
v -65.951439 14.621614 303.776733
v -88.279625 15.689670 364.607483
v -26.809006 14.165237 369.888123
v -84.492477 14.229954 -283.488281
v -26.809006 14.165237 -288.235046
v 112.691010 14.165237 -276.904480
v 166.134918 15.253833 -271.091064
vn 0.0000 1.0000 0.0000
vn 0.0014 1.0000 -0.0002
vn 0.0012 1.0000 0.0004
vn 0.0229 0.9995 0.0221
vn 0.0026 0.9999 -0.0137
vn 0.0000 0.9996 -0.0292
vn 0.0011 1.0000 0.0000
vn 0.0109 0.9997 0.0195
vn 0.0255 0.9996 -0.0082
vn 0.0013 1.0000 0.0002
vn 0.0012 1.0000 0.0000
vn 0.0011 1.0000 0.0002
vn 0.0018 1.0000 0.0003
vn 0.0019 1.0000 0.0000
vn 0.0280 0.9996 0.0000
vn 0.0760 0.9971 0.0000
vn 0.0018 1.0000 -0.0002
vn -0.0214 0.9997 0.0092
vn 0.0117 0.9999 0.0000
vn -0.0187 0.9997 -0.0152
usemtl None
s off
f 81//1 4//1 45//1
f 34//1 41//1 80//1
f 35//1 48//1 79//1
f 32//1 49//1 78//1
f 50//1 37//1 77//1
f 51//1 52//1 76//1
f 75//1 16//1 53//1
f 54//1 36//1 74//1
f 23//1 56//1 84//1
f 47//1 57//1 72//1
f 58//1 29//1 71//1
f 59//1 60//1 70//1
f 46//1 61//1 69//1
f 62//1 33//1 68//1
f 63//1 64//1 67//1
f 40//1 65//1 66//1
f 66//1 25//1 63//1
f 49//1 63//1 21//1
f 7//1 66//1 49//1
f 67//1 18//1 46//1
f 37//1 46//1 9//1
f 21//1 67//1 37//1
f 68//1 8//1 34//1
f 64//1 34//1 18//1
f 25//1 68//1 64//1
f 69//1 24//1 59//1
f 48//1 59//1 20//1
f 9//1 69//1 48//1
f 70//1 14//1 30//1
f 36//1 30//1 5//1
f 20//1 70//1 36//1
f 71//2 3//2 42//2
f 14//3 86//3 85//3
f 58//1 71//1 86//1
f 72//1 23//1 55//1
f 31//1 55//1 15//1
f 6//1 72//1 31//1
f 26//4 84//4 83//4
f 1//5 73//5 26//5
f 15//1 73//1 43//1
f 74//1 5//1 38//1
f 10//6 74//6 38//6
f 23//1 74//1 56//1
f 75//1 22//1 51//1
f 27//1 51//1 11//1
f 2//7 75//7 27//7
f 76//1 19//1 47//1
f 39//1 47//1 6//1
f 11//1 76//1 39//1
f 77//1 9//1 35//1
f 52//1 35//1 19//1
f 22//1 77//1 52//1
f 78//1 21//1 50//1
f 53//1 50//1 22//1
f 16//1 78//1 53//1
f 79//1 20//1 54//1
f 57//1 54//1 23//1
f 19//1 79//1 57//1
f 80//1 13//1 58//1
f 61//1 58//1 24//1
f 18//1 80//1 61//1
f 81//1 17//1 62//1
f 87//1 81//1 62//1
f 12//1 87//1 65//1
f 82//8 56//8 10//8
f 84//9 82//9 83//9
f 85//10 71//10 42//10
f 87//11 28//11 81//11
f 81//12 28//12 4//12
f 34//1 8//1 41//1
f 35//1 9//1 48//1
f 32//1 7//1 49//1
f 50//1 21//1 37//1
f 51//1 22//1 52//1
f 75//13 44//13 16//13
f 54//1 20//1 36//1
f 84//1 73//1 55//1
f 55//1 23//1 84//1
f 47//1 19//1 57//1
f 58//1 13//1 29//1
f 59//1 24//1 60//1
f 46//1 18//1 61//1
f 62//1 17//1 33//1
f 63//1 25//1 64//1
f 40//1 12//1 65//1
f 66//1 65//1 25//1
f 49//1 66//1 63//1
f 7//1 40//1 66//1
f 67//1 64//1 18//1
f 37//1 67//1 46//1
f 21//1 63//1 67//1
f 68//1 33//1 8//1
f 64//1 68//1 34//1
f 25//1 62//1 68//1
f 69//1 61//1 24//1
f 48//1 69//1 59//1
f 9//1 46//1 69//1
f 70//1 60//1 14//1
f 36//1 70//1 30//1
f 20//1 59//1 70//1
f 71//1 29//1 3//1
f 14//1 60//1 86//1
f 86//1 60//1 24//1
f 24//1 58//1 86//1
f 72//1 57//1 23//1
f 31//1 72//1 55//1
f 6//1 47//1 72//1
f 26//14 73//14 84//14
f 1//15 43//15 73//15
f 15//1 55//1 73//1
f 74//1 36//1 5//1
f 10//16 56//16 74//16
f 23//1 54//1 74//1
f 75//1 53//1 22//1
f 27//1 75//1 51//1
f 2//17 44//17 75//17
f 76//1 52//1 19//1
f 39//1 76//1 47//1
f 11//1 51//1 76//1
f 77//1 37//1 9//1
f 52//1 77//1 35//1
f 22//1 50//1 77//1
f 78//1 49//1 21//1
f 53//1 78//1 50//1
f 16//1 32//1 78//1
f 79//1 48//1 20//1
f 57//1 79//1 54//1
f 19//1 35//1 79//1
f 80//1 41//1 13//1
f 61//1 80//1 58//1
f 18//1 34//1 80//1
f 81//1 45//1 17//1
f 62//1 25//1 87//1
f 65//1 87//1 25//1
f 12//18 88//18 87//18
f 84//19 56//19 82//19
f 85//7 86//7 71//7
f 87//20 88//20 28//20
